<mxfile host="Electron" modified="2024-07-07T13:18:31.278Z" agent="Mozilla/5.0 (Windows NT 10.0; Win64; x64) AppleWebKit/537.36 (KHTML, like Gecko) draw.io/24.5.3 Chrome/124.0.6367.207 Electron/30.0.6 Safari/537.36" etag="zG6AKxLraFNb4ndX_X3L" version="24.5.3" type="device">
  <diagram name="Página-1" id="CEkBpZY58_TaXrdcW01S">
    <mxGraphModel dx="1185" dy="713" grid="1" gridSize="10" guides="1" tooltips="1" connect="1" arrows="1" fold="1" page="1" pageScale="1" pageWidth="827" pageHeight="1169" math="0" shadow="0">
      <root>
        <mxCell id="0" />
        <mxCell id="1" parent="0" />
        <mxCell id="98zaYbvRt0VWPRSbZybY-19" style="edgeStyle=orthogonalEdgeStyle;rounded=0;orthogonalLoop=1;jettySize=auto;html=1;labelBackgroundColor=default;fontColor=default;strokeWidth=3;fontSize=15;fontStyle=1;shape=flexArrow;fillColor=#000000;sketch=1;curveFitting=1;jiggle=2;textShadow=1;" parent="1" target="98zaYbvRt0VWPRSbZybY-2" edge="1">
          <mxGeometry relative="1" as="geometry">
            <Array as="points">
              <mxPoint x="390" y="590" />
              <mxPoint x="190" y="590" />
            </Array>
            <mxPoint x="390" y="590" as="sourcePoint" />
          </mxGeometry>
        </mxCell>
        <mxCell id="98zaYbvRt0VWPRSbZybY-1" value="Proyecto" style="rounded=0;whiteSpace=wrap;html=1;labelBackgroundColor=default;strokeWidth=3;fontSize=15;fontStyle=1;gradientColor=none;fontColor=default;fillColor=#000000;labelBorderColor=default;textShadow=1;sketch=1;curveFitting=1;jiggle=2;" parent="1" vertex="1">
          <mxGeometry x="330" y="490" width="120" height="60" as="geometry" />
        </mxCell>
        <mxCell id="98zaYbvRt0VWPRSbZybY-20" style="edgeStyle=orthogonalEdgeStyle;rounded=0;orthogonalLoop=1;jettySize=auto;html=1;labelBackgroundColor=none;fontColor=default;strokeWidth=3;fontSize=15;fontStyle=1;shape=flexArrow;fillColor=default;sketch=1;curveFitting=1;jiggle=2;" parent="1" source="98zaYbvRt0VWPRSbZybY-2" target="98zaYbvRt0VWPRSbZybY-6" edge="1">
          <mxGeometry relative="1" as="geometry">
            <Array as="points">
              <mxPoint x="90" y="669.9999999999999" />
              <mxPoint x="90" y="760" />
            </Array>
          </mxGeometry>
        </mxCell>
        <mxCell id="98zaYbvRt0VWPRSbZybY-21" style="edgeStyle=orthogonalEdgeStyle;rounded=0;orthogonalLoop=1;jettySize=auto;html=1;labelBackgroundColor=none;fontColor=default;strokeWidth=3;fontSize=15;fontStyle=1;shape=flexArrow;fillColor=default;sketch=1;curveFitting=1;jiggle=2;" parent="1" source="98zaYbvRt0VWPRSbZybY-2" target="98zaYbvRt0VWPRSbZybY-7" edge="1">
          <mxGeometry relative="1" as="geometry">
            <Array as="points">
              <mxPoint x="90" y="670" />
              <mxPoint x="90" y="840" />
            </Array>
          </mxGeometry>
        </mxCell>
        <mxCell id="98zaYbvRt0VWPRSbZybY-22" style="edgeStyle=orthogonalEdgeStyle;rounded=0;orthogonalLoop=1;jettySize=auto;html=1;labelBackgroundColor=none;fontColor=default;strokeWidth=3;fontSize=15;fontStyle=1;shape=flexArrow;fillColor=default;sketch=1;curveFitting=1;jiggle=2;" parent="1" source="98zaYbvRt0VWPRSbZybY-2" target="98zaYbvRt0VWPRSbZybY-8" edge="1">
          <mxGeometry relative="1" as="geometry">
            <Array as="points">
              <mxPoint x="90" y="670" />
              <mxPoint x="90" y="930" />
            </Array>
          </mxGeometry>
        </mxCell>
        <mxCell id="98zaYbvRt0VWPRSbZybY-23" style="edgeStyle=orthogonalEdgeStyle;rounded=0;orthogonalLoop=1;jettySize=auto;html=1;labelBackgroundColor=none;fontColor=default;strokeWidth=3;fontSize=15;fontStyle=1;shape=flexArrow;fillColor=default;sketch=1;curveFitting=1;jiggle=2;" parent="1" source="98zaYbvRt0VWPRSbZybY-2" target="98zaYbvRt0VWPRSbZybY-15" edge="1">
          <mxGeometry relative="1" as="geometry">
            <Array as="points">
              <mxPoint x="90" y="670" />
              <mxPoint x="90" y="1020" />
            </Array>
          </mxGeometry>
        </mxCell>
        <mxCell id="98zaYbvRt0VWPRSbZybY-2" value="Técnico" style="rounded=0;whiteSpace=wrap;html=1;labelBackgroundColor=default;strokeWidth=3;fontSize=15;fontStyle=1;fillColor=#000000;fontColor=default;labelBorderColor=default;textShadow=1;sketch=1;curveFitting=1;jiggle=2;" parent="1" vertex="1">
          <mxGeometry x="130" y="640" width="120" height="60" as="geometry" />
        </mxCell>
        <mxCell id="98zaYbvRt0VWPRSbZybY-25" style="edgeStyle=orthogonalEdgeStyle;rounded=0;orthogonalLoop=1;jettySize=auto;html=1;labelBackgroundColor=none;fontColor=default;strokeWidth=3;fontSize=15;fontStyle=1;shape=flexArrow;sketch=1;curveFitting=1;jiggle=2;" parent="1" source="98zaYbvRt0VWPRSbZybY-4" target="98zaYbvRt0VWPRSbZybY-12" edge="1">
          <mxGeometry relative="1" as="geometry">
            <Array as="points">
              <mxPoint x="370" y="670" />
              <mxPoint x="370" y="760" />
            </Array>
          </mxGeometry>
        </mxCell>
        <mxCell id="98zaYbvRt0VWPRSbZybY-4" value="Organizacional" style="rounded=0;whiteSpace=wrap;html=1;labelBackgroundColor=default;strokeWidth=3;fontSize=15;fontStyle=1;fillColor=#000000;fontColor=default;labelBorderColor=default;textShadow=1;sketch=1;curveFitting=1;jiggle=2;" parent="1" vertex="1">
          <mxGeometry x="410" y="640" width="120" height="60" as="geometry" />
        </mxCell>
        <mxCell id="98zaYbvRt0VWPRSbZybY-26" style="edgeStyle=orthogonalEdgeStyle;rounded=0;orthogonalLoop=1;jettySize=auto;html=1;labelBackgroundColor=none;fontColor=default;strokeWidth=3;fontSize=15;fontStyle=1;shape=flexArrow;fillColor=default;sketch=1;curveFitting=1;jiggle=2;" parent="1" source="98zaYbvRt0VWPRSbZybY-5" target="98zaYbvRt0VWPRSbZybY-13" edge="1">
          <mxGeometry relative="1" as="geometry">
            <Array as="points">
              <mxPoint x="640" y="680" />
              <mxPoint x="640" y="760" />
            </Array>
          </mxGeometry>
        </mxCell>
        <mxCell id="98zaYbvRt0VWPRSbZybY-27" style="edgeStyle=orthogonalEdgeStyle;rounded=0;orthogonalLoop=1;jettySize=auto;html=1;labelBackgroundColor=none;fontColor=default;strokeWidth=3;fontSize=15;fontStyle=1;shape=flexArrow;fillColor=default;sketch=1;curveFitting=1;jiggle=2;" parent="1" source="98zaYbvRt0VWPRSbZybY-5" target="98zaYbvRt0VWPRSbZybY-14" edge="1">
          <mxGeometry relative="1" as="geometry">
            <Array as="points">
              <mxPoint x="640" y="680" />
              <mxPoint x="640" y="850" />
            </Array>
          </mxGeometry>
        </mxCell>
        <mxCell id="zujED2l9V14idY5mgSBS-2" style="edgeStyle=orthogonalEdgeStyle;orthogonalLoop=1;jettySize=auto;html=1;rounded=0;curved=0;shape=flexArrow;labelBackgroundColor=none;fontColor=default;strokeWidth=3;fillColor=default;sketch=1;curveFitting=1;jiggle=2;" edge="1" parent="1" source="98zaYbvRt0VWPRSbZybY-5" target="zujED2l9V14idY5mgSBS-1">
          <mxGeometry relative="1" as="geometry">
            <Array as="points">
              <mxPoint x="640" y="680" />
              <mxPoint x="640" y="940" />
            </Array>
          </mxGeometry>
        </mxCell>
        <mxCell id="98zaYbvRt0VWPRSbZybY-5" value="Gestión de Proyecto" style="rounded=0;whiteSpace=wrap;html=1;labelBackgroundColor=default;strokeWidth=3;fontSize=15;fontStyle=1;fillColor=#000000;fontColor=default;labelBorderColor=default;textShadow=1;sketch=1;curveFitting=1;jiggle=2;" parent="1" vertex="1">
          <mxGeometry x="680" y="650" width="120" height="60" as="geometry" />
        </mxCell>
        <mxCell id="98zaYbvRt0VWPRSbZybY-6" value="Tecnología" style="rounded=0;whiteSpace=wrap;html=1;labelBackgroundColor=default;strokeWidth=3;fontSize=15;fontStyle=1;dashed=1;dashPattern=8 8;textShadow=1;sketch=1;curveFitting=1;jiggle=2;labelBorderColor=default;" parent="1" vertex="1">
          <mxGeometry x="180" y="730" width="120" height="60" as="geometry" />
        </mxCell>
        <mxCell id="98zaYbvRt0VWPRSbZybY-7" value="Calidad" style="rounded=0;whiteSpace=wrap;html=1;labelBackgroundColor=default;strokeWidth=3;fontSize=15;fontStyle=1;dashed=1;dashPattern=8 8;textShadow=1;sketch=1;curveFitting=1;jiggle=2;labelBorderColor=default;" parent="1" vertex="1">
          <mxGeometry x="180" y="810" width="120" height="60" as="geometry" />
        </mxCell>
        <mxCell id="98zaYbvRt0VWPRSbZybY-8" value="Formación" style="rounded=0;whiteSpace=wrap;html=1;labelBackgroundColor=default;strokeWidth=3;fontSize=15;fontStyle=1;dashed=1;dashPattern=8 8;textShadow=1;sketch=1;curveFitting=1;jiggle=2;labelBorderColor=default;" parent="1" vertex="1">
          <mxGeometry x="180" y="900" width="120" height="60" as="geometry" />
        </mxCell>
        <mxCell id="98zaYbvRt0VWPRSbZybY-12" value="Recursos" style="rounded=0;whiteSpace=wrap;html=1;labelBackgroundColor=default;strokeWidth=3;fontSize=15;fontStyle=1;dashed=1;dashPattern=8 8;textShadow=1;sketch=1;curveFitting=1;jiggle=2;labelBorderColor=default;" parent="1" vertex="1">
          <mxGeometry x="460" y="730" width="120" height="60" as="geometry" />
        </mxCell>
        <mxCell id="98zaYbvRt0VWPRSbZybY-13" value="Rendimiento del Equipo" style="rounded=0;whiteSpace=wrap;html=1;labelBackgroundColor=default;strokeWidth=3;fontSize=15;fontStyle=1;dashed=1;dashPattern=8 8;textShadow=1;sketch=1;curveFitting=1;jiggle=2;labelBorderColor=default;" parent="1" vertex="1">
          <mxGeometry x="740" y="730" width="120" height="60" as="geometry" />
        </mxCell>
        <mxCell id="98zaYbvRt0VWPRSbZybY-14" value="Estimación" style="rounded=0;whiteSpace=wrap;html=1;labelBackgroundColor=default;strokeWidth=3;fontSize=15;fontStyle=1;dashed=1;dashPattern=8 8;textShadow=1;sketch=1;curveFitting=1;jiggle=2;labelBorderColor=default;" parent="1" vertex="1">
          <mxGeometry x="740" y="820" width="120" height="60" as="geometry" />
        </mxCell>
        <mxCell id="98zaYbvRt0VWPRSbZybY-15" value="Prestacions y Fiabilidad" style="rounded=0;whiteSpace=wrap;html=1;labelBackgroundColor=default;strokeWidth=3;fontSize=15;fontStyle=1;dashed=1;dashPattern=8 8;textShadow=1;sketch=1;curveFitting=1;jiggle=2;labelBorderColor=default;" parent="1" vertex="1">
          <mxGeometry x="180" y="990" width="120" height="60" as="geometry" />
        </mxCell>
        <mxCell id="98zaYbvRt0VWPRSbZybY-17" style="edgeStyle=orthogonalEdgeStyle;rounded=0;orthogonalLoop=1;jettySize=auto;html=1;labelBackgroundColor=default;fontColor=default;strokeWidth=3;fontSize=15;fontStyle=1;shape=flexArrow;fillColor=#000000;sketch=1;curveFitting=1;jiggle=2;textShadow=1;" parent="1" target="98zaYbvRt0VWPRSbZybY-4" edge="1">
          <mxGeometry relative="1" as="geometry">
            <mxPoint x="470" y="590" as="sourcePoint" />
            <Array as="points">
              <mxPoint x="470" y="610" />
              <mxPoint x="470" y="610" />
            </Array>
          </mxGeometry>
        </mxCell>
        <mxCell id="zujED2l9V14idY5mgSBS-1" value="Priorización" style="rounded=0;whiteSpace=wrap;html=1;labelBackgroundColor=default;strokeWidth=3;fontSize=15;fontStyle=1;dashed=1;dashPattern=8 8;textShadow=1;sketch=1;curveFitting=1;jiggle=2;labelBorderColor=default;" vertex="1" parent="1">
          <mxGeometry x="740" y="910" width="120" height="60" as="geometry" />
        </mxCell>
        <mxCell id="98zaYbvRt0VWPRSbZybY-18" style="edgeStyle=orthogonalEdgeStyle;rounded=0;orthogonalLoop=1;jettySize=auto;html=1;labelBackgroundColor=default;fontColor=default;strokeWidth=3;fontSize=15;fontStyle=1;shape=flexArrow;fillColor=#000000;sketch=1;curveFitting=1;jiggle=2;textShadow=1;flowAnimation=0;shadow=0;" parent="1" source="98zaYbvRt0VWPRSbZybY-1" target="98zaYbvRt0VWPRSbZybY-5" edge="1">
          <mxGeometry relative="1" as="geometry">
            <Array as="points">
              <mxPoint x="390" y="590" />
              <mxPoint x="740" y="590" />
            </Array>
          </mxGeometry>
        </mxCell>
      </root>
    </mxGraphModel>
  </diagram>
</mxfile>
